<mxfile host="Electron" agent="Mozilla/5.0 (Windows NT 10.0; Win64; x64) AppleWebKit/537.36 (KHTML, like Gecko) draw.io/27.0.5 Chrome/134.0.6998.205 Electron/35.3.0 Safari/537.36" version="27.0.5">
  <diagram name="第 1 页" id="ydnND2vP-Fn7jRQaFelP">
    <mxGraphModel dx="3153" dy="2207" grid="1" gridSize="10" guides="1" tooltips="1" connect="1" arrows="1" fold="1" page="1" pageScale="1" pageWidth="827" pageHeight="1169" math="0" shadow="0">
      <root>
        <mxCell id="0" />
        <mxCell id="1" parent="0" />
        <mxCell id="k9nPUtV8bllSsgOyXgjj-2" value="&lt;div&gt;&lt;b&gt;（后端）&lt;/b&gt;&lt;/div&gt;" style="rounded=1;whiteSpace=wrap;html=1;verticalAlign=top;textShadow=0;" parent="1" vertex="1">
          <mxGeometry x="130" y="470" width="640" height="360" as="geometry" />
        </mxCell>
        <mxCell id="U9GVbnfbl6RF7epvwp3p-3" style="edgeStyle=orthogonalEdgeStyle;rounded=0;orthogonalLoop=1;jettySize=auto;html=1;entryX=0.5;entryY=1;entryDx=0;entryDy=0;" parent="1" source="U9GVbnfbl6RF7epvwp3p-1" target="U9GVbnfbl6RF7epvwp3p-2" edge="1">
          <mxGeometry relative="1" as="geometry" />
        </mxCell>
        <mxCell id="U9GVbnfbl6RF7epvwp3p-7" style="edgeStyle=orthogonalEdgeStyle;rounded=0;orthogonalLoop=1;jettySize=auto;html=1;exitX=0;exitY=0.25;exitDx=0;exitDy=0;entryX=1;entryY=0.25;entryDx=0;entryDy=0;" parent="1" source="U9GVbnfbl6RF7epvwp3p-1" target="U9GVbnfbl6RF7epvwp3p-4" edge="1">
          <mxGeometry relative="1" as="geometry" />
        </mxCell>
        <mxCell id="U9GVbnfbl6RF7epvwp3p-1" value="g_param_config" style="rounded=1;whiteSpace=wrap;html=1;" parent="1" vertex="1">
          <mxGeometry x="400" y="640" width="120" height="60" as="geometry" />
        </mxCell>
        <mxCell id="U9GVbnfbl6RF7epvwp3p-2" value="ESP32 NVS&lt;div&gt;本地存储&lt;/div&gt;" style="rounded=1;whiteSpace=wrap;html=1;" parent="1" vertex="1">
          <mxGeometry x="400" y="510" width="120" height="60" as="geometry" />
        </mxCell>
        <mxCell id="U9GVbnfbl6RF7epvwp3p-4" value="main_board" style="rounded=1;whiteSpace=wrap;html=1;" parent="1" vertex="1">
          <mxGeometry x="140" y="640" width="120" height="60" as="geometry" />
        </mxCell>
        <mxCell id="U9GVbnfbl6RF7epvwp3p-6" value="" style="endArrow=classic;html=1;rounded=0;exitX=1;exitY=0.75;exitDx=0;exitDy=0;entryX=0;entryY=0.75;entryDx=0;entryDy=0;" parent="1" source="U9GVbnfbl6RF7epvwp3p-4" target="U9GVbnfbl6RF7epvwp3p-1" edge="1">
          <mxGeometry width="50" height="50" relative="1" as="geometry">
            <mxPoint x="360" y="750" as="sourcePoint" />
            <mxPoint x="410" y="700" as="targetPoint" />
          </mxGeometry>
        </mxCell>
        <mxCell id="U9GVbnfbl6RF7epvwp3p-8" value="同步" style="text;html=1;align=center;verticalAlign=middle;whiteSpace=wrap;rounded=0;" parent="1" vertex="1">
          <mxGeometry x="300" y="655" width="60" height="30" as="geometry" />
        </mxCell>
        <mxCell id="U9GVbnfbl6RF7epvwp3p-11" style="rounded=0;orthogonalLoop=1;jettySize=auto;html=1;entryX=1;entryY=0;entryDx=0;entryDy=0;" parent="1" source="U9GVbnfbl6RF7epvwp3p-9" target="U9GVbnfbl6RF7epvwp3p-1" edge="1">
          <mxGeometry relative="1" as="geometry" />
        </mxCell>
        <mxCell id="U9GVbnfbl6RF7epvwp3p-9" value="http_get_handler" style="rounded=1;whiteSpace=wrap;html=1;" parent="1" vertex="1">
          <mxGeometry x="600" y="560" width="150" height="70" as="geometry" />
        </mxCell>
        <mxCell id="U9GVbnfbl6RF7epvwp3p-13" style="edgeStyle=orthogonalEdgeStyle;rounded=0;orthogonalLoop=1;jettySize=auto;html=1;entryX=0.5;entryY=1;entryDx=0;entryDy=0;" parent="1" source="U9GVbnfbl6RF7epvwp3p-10" target="U9GVbnfbl6RF7epvwp3p-4" edge="1">
          <mxGeometry relative="1" as="geometry">
            <Array as="points">
              <mxPoint x="200" y="740" />
            </Array>
          </mxGeometry>
        </mxCell>
        <mxCell id="U9GVbnfbl6RF7epvwp3p-10" value="http_post_handler" style="rounded=1;whiteSpace=wrap;html=1;" parent="1" vertex="1">
          <mxGeometry x="600" y="685" width="150" height="70" as="geometry" />
        </mxCell>
        <mxCell id="U9GVbnfbl6RF7epvwp3p-12" value="读取" style="text;html=1;align=center;verticalAlign=middle;whiteSpace=wrap;rounded=0;" parent="1" vertex="1">
          <mxGeometry x="530" y="600" width="60" height="30" as="geometry" />
        </mxCell>
        <mxCell id="U9GVbnfbl6RF7epvwp3p-14" value="修改配置" style="text;html=1;align=center;verticalAlign=middle;whiteSpace=wrap;rounded=0;" parent="1" vertex="1">
          <mxGeometry x="380" y="740" width="60" height="30" as="geometry" />
        </mxCell>
        <mxCell id="U9GVbnfbl6RF7epvwp3p-16" style="rounded=0;orthogonalLoop=1;jettySize=auto;html=1;exitX=0;exitY=0.25;exitDx=0;exitDy=0;entryX=1;entryY=0.5;entryDx=0;entryDy=0;" parent="1" source="U9GVbnfbl6RF7epvwp3p-15" target="U9GVbnfbl6RF7epvwp3p-9" edge="1">
          <mxGeometry relative="1" as="geometry" />
        </mxCell>
        <mxCell id="U9GVbnfbl6RF7epvwp3p-17" style="rounded=0;orthogonalLoop=1;jettySize=auto;html=1;exitX=0;exitY=0.75;exitDx=0;exitDy=0;entryX=1;entryY=0.5;entryDx=0;entryDy=0;" parent="1" source="U9GVbnfbl6RF7epvwp3p-15" target="U9GVbnfbl6RF7epvwp3p-10" edge="1">
          <mxGeometry relative="1" as="geometry" />
        </mxCell>
        <mxCell id="U9GVbnfbl6RF7epvwp3p-15" value="&lt;div&gt;&lt;b&gt;（前端）&lt;/b&gt;&lt;/div&gt;网页" style="rounded=1;whiteSpace=wrap;html=1;" parent="1" vertex="1">
          <mxGeometry x="810" y="470" width="180" height="370" as="geometry" />
        </mxCell>
        <mxCell id="k9nPUtV8bllSsgOyXgjj-1" value="&lt;h1 style=&quot;margin-top: 0px;&quot;&gt;“双备份”策略&lt;/h1&gt;&lt;p&gt;什么是双备份策略？&lt;/p&gt;&lt;p&gt;主板和ESP32模块都持久化存储&lt;b&gt;“&lt;span style=&quot;background-color: transparent; color: light-dark(rgb(0, 0, 0), rgb(255, 255, 255));&quot;&gt;配置信息&lt;/span&gt;&lt;/b&gt;&lt;span style=&quot;background-color: transparent; color: light-dark(rgb(0, 0, 0), rgb(255, 255, 255));&quot;&gt;&lt;b&gt;”&lt;/b&gt;，并且给每次配置变动加上版本号，保证双方配置信息一致性。&lt;/span&gt;&lt;/p&gt;&lt;p&gt;为什么需要双备份策略？&lt;/p&gt;&lt;p&gt;首先主板是这些配置信息的“执行者”，例如参数配置中的过压阈值、欠压阈值，实际触发这些保护功能的是主板，并且这些保护值断电后不能丢失，&lt;/p&gt;&lt;p&gt;因此主板必须持久化存储。&lt;/p&gt;&lt;p&gt;其次ESP32模块也提供了一个接口（http网页服务）给用户查看/修改这些配置信息，理论上只需要一个普通变量，每次上电或者定时通过串口从主&lt;/p&gt;&lt;p&gt;板同步这些配置即可，但是如果主板出现故障呢？那么可能会导致变量无法同步，提供给用户的参数不正确等问题，因此ESP32本身也需要持久化&lt;/p&gt;&lt;p&gt;存储这些配置，并且加以版本号控制，保证和主板配置的一致性。&lt;/p&gt;&lt;p&gt;如何实现双备份？&lt;/p&gt;&lt;p&gt;主板的实现方式我们暂且不考虑，ESP32本身提供了NVS，天生适合这样键值对配置信息，使用也十分方便，这里不过多介绍。&lt;/p&gt;&lt;p&gt;简单介绍下主板-模块的同步机制，首先模块上电后，第一时间下发指令，让主板发送配置信息，修改全局变量g_param_config，后续所有关于参数&lt;/p&gt;&lt;p&gt;配置的http的get请求，都从该变量获取。上电同步/定时同步失败，则需要在网页上提示用户与主板断开连接。&lt;/p&gt;" style="text;html=1;whiteSpace=wrap;overflow=hidden;rounded=0;" parent="1" vertex="1">
          <mxGeometry x="20" y="20" width="840" height="360" as="geometry" />
        </mxCell>
      </root>
    </mxGraphModel>
  </diagram>
</mxfile>
